<svg
   id="triangle"
   viewBox="0 0 100 85"
   version="1.1"
   sodipodi:docname="logo.svg"
   inkscape:version="1.1.1 (3bf5ae0d25, 2021-09-20)"
   xmlns:inkscape="http://www.inkscape.org/namespaces/inkscape"
   xmlns:sodipodi="http://sodipodi.sourceforge.net/DTD/sodipodi-0.dtd"
   xmlns="http://www.w3.org/2000/svg"
   xmlns:svg="http://www.w3.org/2000/svg">
  <defs
     id="defs47" />
  <sodipodi:namedview
     id="namedview45"
     pagecolor="#505050"
     bordercolor="#eeeeee"
     borderopacity="1"
     inkscape:pageshadow="0"
     inkscape:pageopacity="0"
     inkscape:pagecheckerboard="0"
     showgrid="false"
     inkscape:zoom="11.440988"
     inkscape:cx="48.903119"
     inkscape:cy="74.775011"
     inkscape:window-width="1920"
     inkscape:window-height="1017"
     inkscape:window-x="-8"
     inkscape:window-y="-8"
     inkscape:window-maximized="1"
     inkscape:current-layer="triangle" />
  <style
     id="style29">
    .heavy { font: bold 13px verdana; }
    .blue1 { fill: #DBEEF7;}
    .blue2 { fill: #A0D3EA;}
    .blue3 { fill: #70BCE0;}
    .blue4 { fill: #1190CB;}
  </style>
  <polygon
     points="50 0, 100 85, 0 85"
     style="fill: white"
     id="polygon31" />
  <polygon
     id="1"
     points="50 0, 66.66 28.33, 33.33 28.33"
     class="blue1" />
  <polygon
     id="2"
     points="50 56.66, 16.7 56.66, 33.33 28.33"
     class="blue1" />
  <polygon
     id="3"
     points="50 56.66, 66.66 28.33, 33.33 28.33"
     class="blue2" />
  <polygon
     id="4"
     points="50 56.66, 66.66 28.33, 83.3 56.66"
     class="blue3" />
  <polygon
     id="5"
     points="0 85, 16.7 56.66, 33.33 85"
     class="blue4" />
  <polygon
     id="6"
     points="50 56.66, 16.7 56.66, 33.33 85"
     class="blue3" />
  <polygon
     id="7"
     points="50 56.66, 66.66 85, 33.33 85"
     class="blue2" />
  <polygon
     id="8"
     points="50 56.66, 66.66 85, 83.3 56.66"
     class="blue1" />
  <polygon
     id="9"
     points="100 85, 66.66 85, 83.3 56.66"
     class="blue4" />
     </svg>